<?xml version="1.0" encoding="iso-8859-1"?>
<!-- Generator: Adobe Illustrator 19.0.0, SVG Export Plug-In . SVG Version: 6.00 Build 0)  -->
<svg version="1.1" id="Layer_1" xmlns="http://www.w3.org/2000/svg" xmlns:xlink="http://www.w3.org/1999/xlink" x="0px" y="0px"
	 viewBox="0 0 502 502" style="enable-background:new 0 0 502 502;" xml:space="preserve">
<g>
	<rect x="10" y="24.396" style="fill:#E6E6E6;" width="482" height="311.381"/>
	<rect x="10" y="335.777" style="fill:#DB4949;" width="482" height="81.044"/>
	<g>
		<path d="M502,24.396c0-5.522-4.478-10-10-10H10c-5.522,0-10,4.478-10,10V416.82c0,5.522,4.478,10,10,10h231v40.783h-69.978
			c-5.522,0-10,4.478-10,10s4.478,10,10,10h159.955c5.522,0,10-4.478,10-10s-4.478-10-10-10H261V426.82h231c5.522,0,10-4.478,10-10
			V24.396z M482,325.776H223.957l37.173-37.173l7.325,7.325c1.953,1.952,4.512,2.929,7.071,2.929c2.559,0,5.118-0.977,7.071-2.929
			c3.905-3.905,3.905-10.237,0-14.143l-78.911-78.912c-3.905-3.903-10.235-3.904-14.143,0c-3.905,3.905-3.905,10.237,0,14.143
			l57.444,57.445l-49.979,49.979c-0.418,0.418-0.782,0.869-1.111,1.337H44.806l58.101-58.1c0.003-0.003,0.005-0.005,0.008-0.007
			s0.005-0.005,0.007-0.008L294.188,76.395l108.491,108.49l-30.112,30.112l-90.502-90.502c-3.906-3.904-10.236-3.904-14.143,0
			c-3.905,3.905-3.905,10.237,0,14.143l156.757,156.757c1.953,1.952,4.512,2.929,7.071,2.929s5.118-0.977,7.071-2.929
			c3.905-3.905,3.905-10.237,0-14.143l-52.112-52.112l59.577-59.577c3.905-3.905,3.905-10.237,0-14.143
			c-3.906-3.904-10.236-3.904-14.143,0l-15.322,15.322l-46.108-46.108l54.245-54.245c3.905-3.905,3.905-10.237,0-14.143
			c-3.906-3.904-10.236-3.904-14.143,0l-54.245,54.245l-48.24-48.24l23.854-23.854c1.161-1.161,1.969-2.539,2.439-4.002H482V325.776
			z M20,198.897l61.7,61.701l-61.7,61.7V198.897z M250.2,92.098l-57.7-57.701h115.402L250.2,92.098z M164.625,34.396
			c0.405,0.664,0.885,1.295,1.459,1.869l69.974,69.974L95.843,246.455l-74.506-74.506c-0.418-0.418-0.869-0.782-1.337-1.111v-31.422
			c0.089-0.083,0.184-0.157,0.271-0.244l45.714-45.714l73.439,73.439c1.953,1.952,4.512,2.929,7.071,2.929s5.118-0.977,7.071-2.929
			c3.905-3.905,3.905-10.237,0-14.143L80.127,79.314l6.259-6.259c3.905-3.905,3.905-10.237,0-14.143
			c-3.906-3.904-10.236-3.904-14.143,0L20,111.156v-76.76H164.625z M482,406.82H20v-61.044h462V406.82z"/>
		<path d="M248.728,387.636c1.953,1.952,4.512,2.929,7.071,2.929s5.118-0.977,7.071-2.929c3.905-3.905,3.905-10.237,0-14.143
			l-9.598-9.598c-3.906-3.904-10.236-3.904-14.143,0c-3.905,3.905-3.905,10.237,0,14.143L248.728,387.636z"/>
		<path d="M287.65,192.21l-30.392,30.392c-3.905,3.905-3.905,10.237,0,14.143c1.953,1.952,4.512,2.929,7.071,2.929
			s5.118-0.977,7.071-2.929l30.392-30.392c3.905-3.905,3.905-10.237,0-14.143C297.887,188.306,291.557,188.306,287.65,192.21z"/>
	</g>
</g>
<g>
</g>
<g>
</g>
<g>
</g>
<g>
</g>
<g>
</g>
<g>
</g>
<g>
</g>
<g>
</g>
<g>
</g>
<g>
</g>
<g>
</g>
<g>
</g>
<g>
</g>
<g>
</g>
<g>
</g>
</svg>
