<?xml version="1.0" encoding="iso-8859-1"?>
<!-- Generator: Adobe Illustrator 19.0.0, SVG Export Plug-In . SVG Version: 6.00 Build 0)  -->
<svg version="1.1" id="Layer_1" xmlns="http://www.w3.org/2000/svg" xmlns:xlink="http://www.w3.org/1999/xlink" x="0px" y="0px"
	 viewBox="0 0 502 502" style="enable-background:new 0 0 502 502;" xml:space="preserve">
<g>
	<g>
		<polygon style="fill:#E6E6E6;" points="127.696,312.179 99,403 189.821,374.304 168.573,333.427 		"/>
		<polygon style="fill:#E6E6E6;" points="189.821,127.696 99,99 127.696,189.821 168.573,168.573 		"/>
		<polygon style="fill:#E6E6E6;" points="374.304,189.821 403,99 312.179,127.696 333.427,168.573 		"/>
		<polygon style="fill:#E6E6E6;" points="374.304,312.179 333.427,333.427 312.179,374.304 403,403 		"/>
		<polygon style="fill:#DB4949;" points="168.573,333.427 251,492 333.427,333.427 492,251 333.427,168.573 251,10 168.573,168.573 
			10,251 		"/>
	</g>
	<g>
		<circle style="fill:#E6E6E6;" cx="251" cy="251" r="34"/>
		<g>
			<path d="M496.612,242.127L386.37,184.823l26.165-82.81c1.124-3.558,0.174-7.445-2.464-10.084
				c-2.639-2.639-6.528-3.588-10.084-2.464l-82.81,26.165L259.873,5.388C258.152,2.077,254.731,0,251,0s-7.152,2.077-8.873,5.388
				L184.823,115.63l-82.81-26.165c-3.556-1.123-7.445-0.174-10.084,2.464c-2.638,2.639-3.588,6.526-2.464,10.084l26.165,82.81
				L5.388,242.127C2.077,243.848,0,247.269,0,251s2.077,7.152,5.388,8.873l110.242,57.304l-26.165,82.81
				c-1.124,3.558-0.174,7.445,2.464,10.084c1.904,1.904,4.46,2.929,7.072,2.929c1.007,0,2.022-0.152,3.012-0.465l82.81-26.165
				l57.304,110.242c1.721,3.311,5.142,5.388,8.873,5.388s7.152-2.077,8.873-5.388l57.304-110.242l82.81,26.165
				c0.989,0.313,2.005,0.465,3.012,0.465c2.612,0,5.168-1.024,7.072-2.929c2.638-2.639,3.588-6.526,2.464-10.084l-26.165-82.81
				l110.242-57.304c3.311-1.721,5.388-5.142,5.388-8.873S499.923,243.848,496.612,242.127z M387.669,114.331l-19.314,61.127
				l-27.512-14.301l-14.301-27.512L387.669,114.331z M114.331,114.331l61.127,19.314l-14.301,27.512l-27.512,14.301L114.331,114.331
				z M114.331,387.669l19.314-61.127l27.512,14.301l14.301,27.512L114.331,387.669z M387.669,387.669l-61.127-19.314l14.301-27.512
				l27.512-14.301L387.669,387.669z M369.695,303.304c-0.001,0.001-0.002,0.001-0.003,0.001l-40.877,21.248
				c-1.824,0.948-3.313,2.437-4.261,4.261l-21.248,40.877c0,0.001-0.001,0.002-0.001,0.003L251,470.318l-52.304-100.624
				c-0.001-0.001-0.001-0.002-0.001-0.003l-21.248-40.877c-0.948-1.824-2.437-3.313-4.261-4.261l-40.877-21.248
				c-0.001,0-0.002-0.001-0.003-0.001L31.682,251l100.624-52.304c0.001,0,0.002-0.001,0.003-0.001l40.877-21.248
				c1.824-0.948,3.313-2.437,4.261-4.261l21.248-40.877c0-0.001,0.001-0.002,0.001-0.003L251,31.682l52.304,100.624
				c0,0.001,0.001,0.002,0.001,0.003l21.248,40.877c0.948,1.824,2.437,3.313,4.261,4.261l40.877,21.248
				c0.001,0,0.002,0.001,0.003,0.001L470.318,251L369.695,303.304z"/>
			<path d="M247.266,95.127c-4.9-2.546-10.938-0.64-13.485,4.261l-45.623,87.77l-23.77,12.355c-4.9,2.548-6.808,8.585-4.261,13.485
				c1.781,3.427,5.27,5.39,8.882,5.39c1.553,0,3.13-0.363,4.604-1.129l26.573-13.813c1.824-0.948,3.313-2.437,4.261-4.261
				l47.08-90.572C254.073,103.712,252.166,97.675,247.266,95.127z"/>
			<path d="M126.388,219.265l-35,18.193c-4.9,2.548-6.808,8.585-4.261,13.485c1.781,3.427,5.269,5.39,8.882,5.39
				c1.553,0,3.13-0.363,4.604-1.129l35-18.193c4.9-2.548,6.808-8.585,4.261-13.485C137.326,218.626,131.29,216.717,126.388,219.265z
				"/>
			<path d="M251,207c-24.262,0-44,19.738-44,44s19.738,44,44,44s44-19.738,44-44S275.262,207,251,207z M251,275
				c-13.233,0-24-10.767-24-24s10.767-24,24-24s24,10.767,24,24S264.233,275,251,275z"/>
		</g>
	</g>
</g>
<g>
</g>
<g>
</g>
<g>
</g>
<g>
</g>
<g>
</g>
<g>
</g>
<g>
</g>
<g>
</g>
<g>
</g>
<g>
</g>
<g>
</g>
<g>
</g>
<g>
</g>
<g>
</g>
<g>
</g>
</svg>
