<?xml version="1.0" encoding="iso-8859-1"?>
<!-- Generator: Adobe Illustrator 19.0.0, SVG Export Plug-In . SVG Version: 6.00 Build 0)  -->
<svg version="1.1" id="Layer_1" xmlns="http://www.w3.org/2000/svg" xmlns:xlink="http://www.w3.org/1999/xlink" x="0px" y="0px"
	 viewBox="0 0 502 502" style="enable-background:new 0 0 502 502;" xml:space="preserve">
<g>
	<circle style="fill:#E6E6E6;" cx="251" cy="257.875" r="183.196"/>
	<g>
		<circle style="fill:#DB4949;" cx="105.374" cy="453.543" r="30.766"/>
		<g>
			<path d="M251,64.679c-51.217,0-97.836,20.04-132.447,52.682c-0.487,0.352-0.953,0.746-1.383,1.195
				c-0.235,0.246-0.455,0.502-0.661,0.765c-36.183,35.132-58.706,84.258-58.706,138.554c0,106.529,86.667,193.196,193.196,193.196
				c106.528,0,193.196-86.667,193.196-193.196S357.528,64.679,251,64.679z M329.825,247.875
				c-0.917-46.367-8.193-89.747-20.727-123.061c-5.37-14.273-11.562-26.177-18.38-35.533c26.609,6.267,50.866,18.689,71.188,35.674
				c-8.326,7.092-17.302,13.396-26.797,18.792c-4.801,2.729-6.481,8.833-3.753,13.635c1.843,3.242,5.224,5.061,8.703,5.061
				c1.675,0,3.372-0.421,4.933-1.308c11.238-6.386,21.816-13.922,31.573-22.429c27.356,28.81,44.923,66.993,47.336,109.169H329.825z
				 M210.189,267.875h99.631c-0.502,24.557-2.85,48.146-6.868,69.616c-16.748-4.663-34.2-7.087-51.952-7.087
				c-17.758,0-35.208,2.423-51.953,7.083c-4.56-24.37-6.973-51.468-6.973-79.613c0-27.809,2.358-54.594,6.812-78.737
				c16.781,4.682,34.281,7.115,52.113,7.115c8.926,0,17.905-0.616,26.687-1.83c5.471-0.756,9.293-5.804,8.537-11.275
				c-0.757-5.472-5.812-9.298-11.275-8.537c-7.878,1.089-15.936,1.641-23.949,1.641c-16.402,0-32.491-2.294-47.892-6.708
				c2.456-9.868,5.3-19.145,8.514-27.688c11.114-29.542,25.835-47.178,39.378-47.178c13.543,0,28.264,17.637,39.378,47.178
				c11.721,31.154,18.542,72.037,19.442,116.018h-99.631c-5.523,0-10,4.477-10,10S204.666,267.875,210.189,267.875z
				 M317.615,363.686c15.967,6.652,30.94,15.72,44.422,26.999c-20.349,17.041-44.653,29.504-71.319,35.785
				c6.818-9.357,13.009-21.26,18.38-35.533C312.284,382.467,315.126,373.34,317.615,363.686z M290.378,383.894
				c-11.114,29.542-25.835,47.178-39.378,47.178c-13.542,0-28.264-17.637-39.378-47.178c-3.121-8.296-5.894-17.283-8.301-26.833
				c15.347-4.382,31.369-6.656,47.679-6.656c16.305,0,32.329,2.274,47.679,6.658C296.272,366.612,293.499,375.598,290.378,383.894z
				 M192.903,390.936c5.37,14.273,11.561,26.177,18.379,35.534c-26.666-6.281-50.969-18.743-71.318-35.783
				c13.483-11.282,28.454-20.35,44.42-27.002C186.874,373.339,189.716,382.466,192.903,390.936z M184.17,152.895
				c-16.098-6.732-31.177-15.923-44.744-27.375c20.458-17.273,44.954-29.903,71.856-36.239c-6.818,9.357-13.009,21.26-18.379,35.534
				C189.625,133.527,186.709,142.932,184.17,152.895z M78.099,267.875h25.074c5.523,0,10-4.477,10-10s-4.477-10-10-10H78.099
				c2.395-41.86,19.722-79.782,46.727-108.515c16.492,14.248,35.049,25.461,54.935,33.344c-5.024,26.116-7.686,55.129-7.686,85.17
				c0,30.369,2.722,59.685,7.853,86.021c-19.76,7.814-38.217,18.915-54.631,32.999C98.021,348.103,80.509,309.98,78.099,267.875z
				 M376.7,376.899c-16.411-14.08-34.869-25.18-54.629-32.994c4.567-23.436,7.224-49.231,7.754-76.029h94.076
				C421.491,309.981,403.978,348.106,376.7,376.899z"/>
			<path d="M133.101,267.875h20.859c5.523,0,10-4.477,10-10s-4.477-10-10-10h-20.859c-5.523,0-10,4.477-10,10
				S127.578,267.875,133.101,267.875z"/>
			<path d="M483.157,193.007c5.248-1.722,8.106-7.372,6.385-12.619c-16.351-49.838-47.427-92.699-89.87-123.949
				C356.356,24.548,304.946,7.691,251,7.691c-67.044,0-130.076,26.108-177.484,73.516S0,191.647,0,258.691
				c0,34.453,6.856,67.836,20.378,99.225c12.019,27.898,28.792,53.066,49.893,74.935c-3.592,6.07-5.662,13.142-5.662,20.692
				c0,22.479,18.288,40.766,40.766,40.766s40.766-18.288,40.766-40.766s-18.288-40.766-40.766-40.766
				c-7.689,0-14.886,2.142-21.03,5.857C42.798,375.421,20,318.934,20,258.691c0-127.374,103.626-231,231-231
				c100.126,0,188.352,63.87,219.538,158.931C472.26,191.871,477.911,194.729,483.157,193.007z M126.141,453.542
				c0,11.451-9.315,20.766-20.766,20.766s-20.766-9.315-20.766-20.766s9.315-20.766,20.766-20.766S126.141,442.092,126.141,453.542z
				"/>
			<path d="M499.344,222.052c-0.8-5.465-5.883-9.249-11.342-8.447c-5.465,0.799-9.247,5.877-8.447,11.342
				c1.622,11.091,2.445,22.444,2.445,33.744c0,5.523,4.478,10,10,10s10-4.477,10-10C502,246.426,501.106,234.099,499.344,222.052z"
				/>
		</g>
	</g>
</g>
<g>
</g>
<g>
</g>
<g>
</g>
<g>
</g>
<g>
</g>
<g>
</g>
<g>
</g>
<g>
</g>
<g>
</g>
<g>
</g>
<g>
</g>
<g>
</g>
<g>
</g>
<g>
</g>
<g>
</g>
</svg>
